<?xml version="1.0" standalone="no"?>
<!DOCTYPE svg PUBLIC "-//W3C//DTD SVG 20010904//EN"
 "http://www.w3.org/TR/2001/REC-SVG-20010904/DTD/svg10.dtd">
<svg version="1.0" xmlns="http://www.w3.org/2000/svg"
 width="72.000000pt" height="72.000000pt" viewBox="0 0 72.000000 72.000000"
 preserveAspectRatio="xMidYMid meet">
<metadata>
Created by potrace 1.14, written by Peter Selinger 2001-2017
</metadata>
<g transform="translate(0.000000,72.000000) scale(0.100000,-0.100000)"
fill="#000000" stroke="none">
<path d="M143 664 c-46 -16 -80 -50 -89 -88 -4 -17 -8 -116 -9 -221 -1 -160 2
-196 16 -225 38 -79 65 -86 315 -85 171 1 194 3 224 21 66 38 74 65 75 268 1
100 -3 201 -7 226 -10 52 -47 96 -92 106 -55 13 -395 11 -433 -2z"/>
</g>
</svg>
